<svg width="251" height="57" viewBox="0 0 251 57" fill="none" xmlns="http://www.w3.org/2000/svg">
<path d="M2.10489 0H28.5856C39.6651 0 48.6468 9.44409 48.6468 20.5997C48.6468 31.7552 39.6651 40.7986 28.5856 40.7986C26.3697 40.7986 24.5734 42.6073 24.5734 44.8384V55.3418C24.5734 56.2343 23.8549 56.9577 22.9685 56.9577H17.9973C17.1948 56.9577 16.3924 56.1498 16.3924 55.3418V35.9509C16.3924 34.166 17.8294 32.719 19.6021 32.719H24.1945C25.6895 32.719 27.1638 32.3686 28.5009 31.6954L33.3156 29.2716C40.4129 25.6985 40.4129 15.5008 33.3156 11.9277L28.5009 9.50388C27.1638 8.83074 25.6764 8.01389 24.1815 8.01389H2.09185C1.2894 8.01389 0.5 7.21907 0.5 6.41111L0.5 1.61592C0.5 0.723471 1.21854 0 2.10489 0Z" fill="#617AF9"/>
<path d="M0.5 55.2827V40.5095V38.8936V17.6437C0.5 16.7512 1.21853 16.0278 2.10489 16.0278H24.1945C24.4437 16.0278 24.6894 16.0862 24.9123 16.1984L29.7269 18.5842C30.9098 19.1797 30.9098 20.8794 29.7269 21.4749L24.9123 23.8711C24.6894 23.9833 24.4437 24.0417 24.1945 24.0417H10.1294C9.243 24.0417 8.52446 24.7651 8.52446 25.6576V55.2827C8.52446 56.1751 7.80593 56.8986 6.91957 56.8986H2.10489C1.21853 56.8986 0.5 56.1751 0.5 55.2827Z" fill="#FFBF00"/>
<circle cx="101.126" cy="20.3776" r="4.37757" fill="#FFBF00"/>
<path d="M219.379 56.8988V16.2266H234.912C243.937 16.2266 249.078 21.3481 249.078 29.2231C249.078 34.6751 246.589 38.6401 242.077 40.5676L250.5 56.8988H241.421L233.873 41.9443H227.583V56.8988H219.379ZM227.583 35.2258H233.381C238.249 35.2258 240.6 33.1882 240.6 29.2231C240.6 25.203 238.249 23.0002 233.381 23.0002H227.583V35.2258Z" fill="#617AF9"/>
<path d="M187.541 56.8987V16.0278H213.806V24.0417H195.745V32.5489H212.755V39.3776H195.745V49.07H213.806V56.8987H187.541Z" fill="#617AF9"/>
<path d="M149.338 24.0417V16.0278H181.971V24.0417H169.63V56.8987H161.48V24.0417H149.338Z" fill="#617AF9"/>
<path d="M143.766 16.0278L143.793 56.8987H137L119.58 30.765H119.252V56.8987H111.133V16.0278H118.268L135.551 41.5587H135.806V16.0278H143.766Z" fill="#617AF9"/>
<path d="M105.468 28.8501V56.8987H96.7129V28.8501H105.468Z" fill="#617AF9"/>
<path d="M91.0829 36.5139C91.0829 49.5105 83.0428 57.0001 72.5962 57.0001C62.0401 57.0001 54.0547 49.4554 54.0547 36.5139C54.0547 23.5174 62.0401 16.0278 72.5962 16.0278C83.0428 16.0278 91.0829 23.5174 91.0829 36.5139ZM82.7147 36.5139C82.7147 27.9781 78.7219 23.3522 72.5962 23.3522C66.4704 23.3522 62.423 27.9781 62.423 36.5139C62.423 45.0498 66.4704 49.6757 72.5962 49.6757C78.7219 49.6757 82.7147 45.0498 82.7147 36.5139Z" fill="#617AF9"/>
</svg>
