<svg width="416" height="344" viewBox="0 0 416 344" fill="none" xmlns="http://www.w3.org/2000/svg">
<rect width="416" height="344" fill="#E8E8E8"/>
<g clip-path="url(#clip0_1951_10348)">
<path d="M215.5 160H200.5C199.307 160.001 198.163 160.476 197.319 161.319C196.476 162.163 196.001 163.307 196 164.5V179.5C196.001 180.693 196.476 181.837 197.319 182.681C198.163 183.524 199.307 183.999 200.5 184H215.5C216.693 183.999 217.837 183.524 218.681 182.681C219.524 181.837 219.999 180.693 220 179.5V164.5C219.999 163.307 219.524 162.163 218.681 161.319C217.837 160.476 216.693 160.001 215.5 160V160ZM200.5 163H215.5C215.898 163 216.279 163.158 216.561 163.439C216.842 163.721 217 164.102 217 164.5V179.5C217 179.697 216.962 179.892 216.886 180.074C216.81 180.256 216.7 180.421 216.56 180.56L207.828 171.828C207.078 171.078 206.061 170.657 205 170.657C203.939 170.657 202.922 171.078 202.172 171.828L199 175V164.5C199 164.102 199.158 163.721 199.439 163.439C199.721 163.158 200.102 163 200.5 163Z" fill="black"/>
<path d="M211.5 170C212.881 170 214 168.88 214 167.5C214 166.119 212.881 165 211.5 165C210.119 165 209 166.119 209 167.5C209 168.88 210.119 170 211.5 170Z" fill="black"/>
</g>
<defs>
<clipPath id="clip0_1951_10348">
<rect width="24" height="24" fill="white" transform="translate(196 160)"/>
</clipPath>
</defs>
</svg>
