<svg width="24" height="24" viewBox="0 0 24 24" fill="none" xmlns="http://www.w3.org/2000/svg">
<path d="M0 8C0 3.58172 3.58172 0 8 0H16C20.4183 0 24 3.58172 24 8V16C24 20.4183 20.4183 24 16 24H8C3.58172 24 0 20.4183 0 16V8Z" fill="#E9EBF8"/>
<g clip-path="url(#clip0_2705_23859)">
<path d="M12.6673 17.3333C13.551 17.3323 14.3983 16.9808 15.0232 16.3559C15.6481 15.731 15.9996 14.8837 16.0007 14V8.16201C16.0017 7.81158 15.9332 7.46444 15.799 7.14069C15.6649 6.81694 15.4679 6.52304 15.2193 6.27601L13.7247 4.78135C13.4776 4.53279 13.1837 4.33575 12.86 4.20163C12.5362 4.0675 12.1891 3.99897 11.8387 4.00001H8.66732C7.78359 4.00107 6.93636 4.3526 6.31146 4.97749C5.68657 5.60238 5.33504 6.44961 5.33398 7.33334V14C5.33504 14.8837 5.68657 15.731 6.31146 16.3559C6.93636 16.9808 7.78359 17.3323 8.66732 17.3333H12.6673ZM6.66732 14V7.33334C6.66732 6.80291 6.87803 6.2942 7.2531 5.91913C7.62818 5.54406 8.13688 5.33334 8.66732 5.33334C8.66732 5.33334 11.9467 5.34268 12.0007 5.34934V6.66668C12.0007 7.0203 12.1411 7.35944 12.3912 7.60949C12.6412 7.85954 12.9804 8.00001 13.334 8.00001H14.6513C14.658 8.05401 14.6673 14 14.6673 14C14.6673 14.5304 14.4566 15.0392 14.0815 15.4142C13.7065 15.7893 13.1978 16 12.6673 16H8.66732C8.13688 16 7.62818 15.7893 7.2531 15.4142C6.87803 15.0392 6.66732 14.5304 6.66732 14ZM18.6673 9.33334V16.6667C18.6663 17.5504 18.3147 18.3976 17.6898 19.0225C17.0649 19.6474 16.2177 19.999 15.334 20H9.33398C9.15717 20 8.9876 19.9298 8.86258 19.8048C8.73756 19.6797 8.66732 19.5102 8.66732 19.3333C8.66732 19.1565 8.73756 18.987 8.86258 18.8619C8.9876 18.7369 9.15717 18.6667 9.33398 18.6667H15.334C15.8644 18.6667 16.3731 18.456 16.7482 18.0809C17.1233 17.7058 17.334 17.1971 17.334 16.6667V9.33334C17.334 9.15653 17.4042 8.98696 17.5292 8.86194C17.6543 8.73692 17.8238 8.66668 18.0007 8.66668C18.1775 8.66668 18.347 8.73692 18.4721 8.86194C18.5971 8.98696 18.6673 9.15653 18.6673 9.33334Z" fill="#617AF9"/>
</g>
<defs>
<clipPath id="clip0_2705_23859">
<rect width="16" height="16" fill="white" transform="translate(4 4)"/>
</clipPath>
</defs>
</svg>
