<svg width="24" height="24" viewBox="0 0 24 24" fill="none" xmlns="http://www.w3.org/2000/svg">
<path d="M7.19844 6.12023V7.12023C7.5541 7.12023 7.88301 6.93132 8.06222 6.62411L7.19844 6.12023ZM8.87844 3.24023V2.24023C8.52277 2.24023 8.19387 2.42915 8.01466 2.73636L8.87844 3.24023ZM15.1184 3.24023L15.9822 2.73636C15.803 2.42915 15.4741 2.24023 15.1184 2.24023V3.24023ZM16.7984 6.12023L15.9347 6.62411C16.1139 6.93132 16.4428 7.12023 16.7984 7.12023V6.12023ZM2.39844 18.3602H3.39844V8.52023H2.39844H1.39844V18.3602H2.39844ZM4.79844 6.12023V7.12023H7.19844V6.12023V5.12023H4.79844V6.12023ZM7.19844 6.12023L8.06222 6.62411L9.74222 3.74411L8.87844 3.24023L8.01466 2.73636L6.33466 5.61636L7.19844 6.12023ZM8.87844 3.24023V4.24023H15.1184V3.24023V2.24023H8.87844V3.24023ZM15.1184 3.24023L14.2547 3.74411L15.9347 6.62411L16.7984 6.12023L17.6622 5.61636L15.9822 2.73636L15.1184 3.24023ZM16.7984 6.12023V7.12023H19.1984V6.12023V5.12023H16.7984V6.12023ZM21.5984 8.52023H20.5984V18.3602H21.5984H22.5984V8.52023H21.5984ZM21.5984 18.3602H20.5984C20.5984 19.1334 19.9716 19.7602 19.1984 19.7602V20.7602V21.7602C21.0762 21.7602 22.5984 20.238 22.5984 18.3602H21.5984ZM19.1984 6.12023V7.12023C19.9716 7.12023 20.5984 7.74704 20.5984 8.52023H21.5984H22.5984C22.5984 6.64247 21.0762 5.12023 19.1984 5.12023V6.12023ZM2.39844 8.52023H3.39844C3.39844 7.74703 4.02524 7.12023 4.79844 7.12023V6.12023V5.12023C2.92067 5.12023 1.39844 6.64246 1.39844 8.52023H2.39844ZM4.79844 20.7602V19.7602C4.02524 19.7602 3.39844 19.1334 3.39844 18.3602H2.39844H1.39844C1.39844 20.238 2.92067 21.7602 4.79844 21.7602V20.7602ZM15.5984 12.8402H14.5984C14.5984 14.2762 13.4344 15.4402 11.9984 15.4402V16.4402V17.4402C14.5389 17.4402 16.5984 15.3807 16.5984 12.8402H15.5984ZM11.9984 16.4402V15.4402C10.5625 15.4402 9.39844 14.2762 9.39844 12.8402H8.39844H7.39844C7.39844 15.3807 9.45793 17.4402 11.9984 17.4402V16.4402ZM8.39844 12.8402H9.39844C9.39844 11.4043 10.5625 10.2402 11.9984 10.2402V9.24023V8.24023C9.45793 8.24023 7.39844 10.2997 7.39844 12.8402H8.39844ZM11.9984 9.24023V10.2402C13.4344 10.2402 14.5984 11.4043 14.5984 12.8402H15.5984H16.5984C16.5984 10.2997 14.5389 8.24023 11.9984 8.24023V9.24023ZM19.1984 20.7602V19.7602H4.79844V20.7602V21.7602H19.1984V20.7602Z" fill="#617AF9"/>
</svg>
