<svg width="16" height="16" viewBox="0 0 16 16" fill="none" xmlns="http://www.w3.org/2000/svg">
<path d="M10.4746 4.11133C10.8651 3.7208 11.4981 3.7208 11.8887 4.11133C12.2792 4.50185 12.2792 5.13487 11.8887 5.52539L9.41406 8L11.8887 10.4746L11.958 10.5508C12.2783 10.9436 12.2548 11.5226 11.8887 11.8887C11.5226 12.2548 10.9436 12.2783 10.5508 11.958L10.4746 11.8887L8 9.41406L5.52539 11.8887C5.13487 12.2792 4.50185 12.2792 4.11133 11.8887C3.7208 11.4981 3.7208 10.8651 4.11133 10.4746L6.58594 8L4.11133 5.52539L4.04199 5.44922C3.72173 5.05645 3.74525 4.47741 4.11133 4.11133C4.47741 3.74525 5.05645 3.72173 5.44922 4.04199L5.52539 4.11133L8 6.58594L10.4746 4.11133Z" fill="#EDEEF2"/>
<path fill-rule="evenodd" clip-rule="evenodd" d="M16 8C16 3.58172 12.4183 0 8 0C3.58172 0 0 3.58172 0 8C0 12.4183 3.58172 16 8 16C12.4183 16 16 12.4183 16 8ZM11.8887 4.11133C11.4981 3.7208 10.8651 3.7208 10.4746 4.11133L8 6.58594L5.52539 4.11133L5.44922 4.04199C5.05645 3.72173 4.47741 3.74525 4.11133 4.11133C3.74525 4.47741 3.72173 5.05645 4.04199 5.44922L4.11133 5.52539L6.58594 8L4.11133 10.4746C3.7208 10.8651 3.7208 11.4981 4.11133 11.8887C4.50185 12.2792 5.13487 12.2792 5.52539 11.8887L8 9.41406L10.4746 11.8887L10.5508 11.958C10.9436 12.2783 11.5226 12.2548 11.8887 11.8887C12.2548 11.5226 12.2783 10.9436 11.958 10.5508L11.8887 10.4746L9.41406 8L11.8887 5.52539C12.2792 5.13487 12.2792 4.50185 11.8887 4.11133Z" fill="#C6CAD4"/>
</svg>
