<svg width="24" height="24" viewBox="0 0 24 24" fill="none" xmlns="http://www.w3.org/2000/svg">
<g clip-path="url(#clip0_1951_3484)">
<path d="M23.7076 22.2925L22.6306 21.2155L20.9006 19.4885L23.6896 16.6995C23.8083 16.5806 23.8952 16.4337 23.9421 16.2724C23.989 16.1111 23.9946 15.9405 23.9582 15.7765C23.9218 15.6124 23.8447 15.4602 23.734 15.3339C23.6232 15.2075 23.4824 15.1111 23.3246 15.0535L14.3556 11.7995C13.9983 11.6704 13.6117 11.6457 13.2409 11.7283C12.8701 11.8109 12.5305 11.9974 12.2618 12.2659C11.9932 12.5345 11.8066 12.874 11.7238 13.2448C11.6411 13.6155 11.6656 14.0022 11.7946 14.3595L15.0576 23.3285C15.1149 23.4865 15.2111 23.6275 15.3373 23.7385C15.4635 23.8495 15.6156 23.9269 15.7796 23.9635C15.8509 23.979 15.9236 23.9867 15.9966 23.9865C16.2618 23.9864 16.5161 23.8811 16.7036 23.6935L19.4896 20.8995L21.2166 22.6265L22.2936 23.7035C22.4822 23.8857 22.7348 23.9865 22.997 23.9842C23.2592 23.9819 23.51 23.8767 23.6954 23.6913C23.8808 23.5059 23.986 23.2551 23.9883 22.9929C23.9906 22.7307 23.8898 22.4781 23.7076 22.2895V22.2925ZM16.4006 21.1645L13.6766 13.6745L21.1666 16.3985L16.4006 21.1645Z" fill="#617AF9"/>
<path d="M10 20C8.02219 20 6.08879 19.4135 4.4443 18.3147C2.79981 17.2159 1.51809 15.6541 0.761209 13.8268C0.00433284 11.9996 -0.193701 9.98891 0.192152 8.0491C0.578004 6.10929 1.53041 4.32746 2.92894 2.92894C4.32746 1.53041 6.10929 0.578004 8.0491 0.192152C9.98891 -0.193701 11.9996 0.00433284 13.8268 0.761209C15.6541 1.51809 17.2159 2.79981 18.3147 4.4443C19.4135 6.08879 20 8.02219 20 10C20 10.2652 19.8946 10.5196 19.7071 10.7071C19.5196 10.8946 19.2652 11 19 11C18.7348 11 18.4804 10.8946 18.2929 10.7071C18.1054 10.5196 18 10.2652 18 10C18 8.41775 17.5308 6.87104 16.6518 5.55544C15.7727 4.23985 14.5233 3.21447 13.0615 2.60897C11.5997 2.00347 9.99113 1.84504 8.43928 2.15372C6.88743 2.4624 5.46197 3.22433 4.34315 4.34315C3.22433 5.46197 2.4624 6.88743 2.15372 8.43928C1.84504 9.99113 2.00347 11.5997 2.60897 13.0615C3.21447 14.5233 4.23985 15.7727 5.55544 16.6518C6.87104 17.5308 8.41775 18 10 18C10.2652 18 10.5196 18.1054 10.7071 18.2929C10.8946 18.4804 11 18.7348 11 19C11 19.2652 10.8946 19.5196 10.7071 19.7071C10.5196 19.8946 10.2652 20 10 20Z" fill="#617AF9"/>
<path d="M8.08355 15.6202C7.95213 15.6203 7.82198 15.5945 7.70055 15.5442C6.7894 15.1658 5.98563 14.5685 5.36043 13.8053C4.73523 13.0421 4.30788 12.1365 4.11624 11.1686C3.92459 10.2008 3.97456 9.20068 4.26173 8.25679C4.5489 7.3129 5.06439 6.45439 5.76256 5.75729C6.46073 5.06018 7.32003 4.546 8.26436 4.26028C9.20869 3.97456 10.2089 3.92612 11.1764 4.11925C12.144 4.31237 13.0489 4.7411 13.8112 5.36747C14.5735 5.99384 15.1695 6.79852 15.5465 7.71025C15.5994 7.83205 15.6275 7.96317 15.6291 8.09594C15.6307 8.22871 15.6059 8.36047 15.5561 8.48355C15.5062 8.60662 15.4324 8.71854 15.3388 8.81277C15.2453 8.907 15.1339 8.98166 15.0112 9.03239C14.8885 9.08312 14.7569 9.1089 14.6242 9.10824C14.4914 9.10757 14.3601 9.08047 14.2379 9.02852C14.1157 8.97656 14.0051 8.90079 13.9125 8.80563C13.8199 8.71046 13.7471 8.59781 13.6985 8.47424C13.4466 7.86698 13.0489 7.33118 12.5405 6.91425C12.0322 6.49732 11.4289 6.21212 10.7841 6.08388C10.1393 5.95565 9.47277 5.98833 8.84359 6.17904C8.2144 6.36975 7.64193 6.71261 7.17681 7.17728C6.7117 7.64194 6.3683 8.21409 6.17699 8.84309C5.98567 9.47209 5.95235 10.1385 6.07997 10.7835C6.20759 11.4284 6.49221 12.032 6.90866 12.5407C7.3251 13.0495 7.86052 13.4477 8.46755 13.7002C8.68147 13.7888 8.85805 13.9488 8.96716 14.153C9.07626 14.3572 9.11113 14.5929 9.06582 14.82C9.0205 15.047 8.89781 15.2513 8.71868 15.398C8.53954 15.5446 8.31507 15.6246 8.08355 15.6242V15.6202Z" fill="#617AF9"/>
</g>
<defs>
<clipPath id="clip0_1951_3484">
<rect width="24" height="24" fill="white"/>
</clipPath>
</defs>
</svg>
