<svg width="49" height="48" viewBox="0 0 49 48" fill="none" xmlns="http://www.w3.org/2000/svg">
<g clip-path="url(#clip0_2982_36476)">
<path d="M47.9136 0.586305C47.5385 0.211363 47.0299 0.000732422 46.4996 0.000732422C45.9692 0.000732422 45.4606 0.211363 45.0856 0.586305L24.4996 21.1723L3.91357 0.586305C3.53852 0.211363 3.0299 0.000732422 2.49957 0.000732422C1.96924 0.000732422 1.46063 0.211363 1.08557 0.586305C0.710631 0.961361 0.5 1.46998 0.5 2.00031C0.5 2.53063 0.710631 3.03925 1.08557 3.41431L21.6716 24.0003L1.08557 44.5863C0.710631 44.9614 0.5 45.47 0.5 46.0003C0.5 46.5306 0.710631 47.0392 1.08557 47.4143C1.46063 47.7892 1.96924 47.9999 2.49957 47.9999C3.0299 47.9999 3.53852 47.7892 3.91357 47.4143L24.4996 26.8283L45.0856 47.4143C45.4606 47.7892 45.9692 47.9999 46.4996 47.9999C47.0299 47.9999 47.5385 47.7892 47.9136 47.4143C48.2885 47.0392 48.4991 46.5306 48.4991 46.0003C48.4991 45.47 48.2885 44.9614 47.9136 44.5863L27.3276 24.0003L47.9136 3.41431C48.2885 3.03925 48.4991 2.53063 48.4991 2.00031C48.4991 1.46998 48.2885 0.961361 47.9136 0.586305Z" fill="#D20000"/>
</g>
<defs>
<clipPath id="clip0_2982_36476">
<rect width="48" height="48" fill="white" transform="translate(0.5)"/>
</clipPath>
</defs>
</svg>
