<svg width="24" height="24" viewBox="0 0 24 24" fill="none" xmlns="http://www.w3.org/2000/svg">
<g clip-path="url(#clip0_3207_7810)">
<path d="M7 6.00048H23C23.2652 6.00048 23.5196 5.89513 23.7071 5.70759C23.8946 5.52006 24 5.2657 24 5.00049C24 4.73527 23.8946 4.48092 23.7071 4.29338C23.5196 4.10585 23.2652 4.00049 23 4.00049H7C6.73478 4.00049 6.48043 4.10585 6.29289 4.29338C6.10536 4.48092 6 4.73527 6 5.00049C6 5.2657 6.10536 5.52006 6.29289 5.70759C6.48043 5.89513 6.73478 6.00048 7 6.00048Z" fill="#617AF9"/>
<path d="M23 10.9995H7C6.73478 10.9995 6.48043 11.1049 6.29289 11.2924C6.10536 11.4799 6 11.7343 6 11.9995C6 12.2647 6.10536 12.5191 6.29289 12.7066C6.48043 12.8942 6.73478 12.9995 7 12.9995H23C23.2652 12.9995 23.5196 12.8942 23.7071 12.7066C23.8946 12.5191 24 12.2647 24 11.9995C24 11.7343 23.8946 11.4799 23.7071 11.2924C23.5196 11.1049 23.2652 10.9995 23 10.9995Z" fill="#617AF9"/>
<path d="M23 18H7C6.73478 18 6.48043 18.1054 6.29289 18.2929C6.10536 18.4804 6 18.7348 6 19C6 19.2652 6.10536 19.5196 6.29289 19.7071C6.48043 19.8947 6.73478 20 7 20H23C23.2652 20 23.5196 19.8947 23.7071 19.7071C23.8946 19.5196 24 19.2652 24 19C24 18.7348 23.8946 18.4804 23.7071 18.2929C23.5196 18.1054 23.2652 18 23 18Z" fill="#617AF9"/>
<path d="M2 6.99999C3.10457 6.99999 4 6.10456 4 5C4 3.89543 3.10457 3 2 3C0.89543 3 0 3.89543 0 5C0 6.10456 0.89543 6.99999 2 6.99999Z" fill="#617AF9"/>
<path d="M2 14.0005C3.10457 14.0005 4 13.1051 4 12.0005C4 10.8959 3.10457 10.0005 2 10.0005C0.89543 10.0005 0 10.8959 0 12.0005C0 13.1051 0.89543 14.0005 2 14.0005Z" fill="#617AF9"/>
<path d="M2 20.9995C3.10457 20.9995 4 20.1041 4 18.9995C4 17.8949 3.10457 16.9995 2 16.9995C0.89543 16.9995 0 17.8949 0 18.9995C0 20.1041 0.89543 20.9995 2 20.9995Z" fill="#617AF9"/>
</g>
<defs>
<clipPath id="clip0_3207_7810">
<rect width="24" height="24" fill="white"/>
</clipPath>
</defs>
</svg>
