<svg width="10" height="20" viewBox="0 0 10 20" fill="none" xmlns="http://www.w3.org/2000/svg">
<path d="M3.18878 11.0148C3.05811 10.882 2.9544 10.724 2.88362 10.5499C2.81285 10.3758 2.77641 10.1891 2.77641 10.0006C2.77641 9.81198 2.81285 9.62527 2.88362 9.45119C2.9544 9.27712 3.05811 9.11912 3.18878 8.98633L9.58763 2.44385C9.7183 2.31105 9.82201 2.15306 9.89279 1.97898C9.96356 1.80491 10 1.6182 10 1.42962C10 1.24104 9.96356 1.05433 9.89279 0.880257C9.82201 0.706183 9.7183 0.54819 9.58763 0.415394C9.32643 0.149336 8.9731 0 8.6048 0C8.2365 0 7.88317 0.149336 7.62197 0.415394L1.22311 6.97216C0.439914 7.77568 0 8.8649 0 10.0006C0 11.1362 0.439914 12.2254 1.22311 13.029L7.62197 19.5857C7.88163 19.8496 8.23211 19.9984 8.59783 20C8.7813 20.0011 8.96318 19.965 9.13303 19.8939C9.30288 19.8229 9.45737 19.7181 9.58763 19.5857C9.7183 19.4529 9.82201 19.2949 9.89279 19.1209C9.96356 18.9468 10 18.7601 10 18.5715C10 18.3829 9.96356 18.1962 9.89279 18.0221C9.82201 17.848 9.7183 17.6901 9.58763 17.5573L3.18878 11.0148Z" fill="#617AF9"/>
</svg>
