<svg width="24" height="24" viewBox="0 0 24 24" fill="none" xmlns="http://www.w3.org/2000/svg">
<g clip-path="url(#clip0_1534_5738)">
<path d="M11 7C11 7.55228 11.4477 8 12 8C12.5523 8 13 7.55228 13 7C13 6.44772 12.5523 6 12 6C11.4477 6 11 6.44772 11 7Z" fill="#6B6F77"/>
<path d="M11 12C11 12.5523 11.4477 13 12 13C12.5523 13 13 12.5523 13 12C13 11.4477 12.5523 11 12 11C11.4477 11 11 11.4477 11 12Z" fill="#6B6F77"/>
<path d="M11 17C11 17.5523 11.4477 18 12 18C12.5523 18 13 17.5523 13 17C13 16.4477 12.5523 16 12 16C11.4477 16 11 16.4477 11 17Z" fill="#6B6F77"/>
</g>
<defs>
<clipPath id="clip0_1534_5738">
<rect width="12" height="12" fill="white" transform="translate(18 6) rotate(90)"/>
</clipPath>
</defs>
</svg>
