<svg width="24" height="25" viewBox="0 0 24 25" fill="none" xmlns="http://www.w3.org/2000/svg">
<path d="M15.3974 10.4179L10.8074 5.8279C10.62 5.64165 10.3665 5.53711 10.1024 5.53711C9.83818 5.53711 9.58472 5.64165 9.39736 5.8279C9.30363 5.92086 9.22924 6.03147 9.17847 6.15333C9.1277 6.27518 9.10156 6.40589 9.10156 6.5379C9.10156 6.66991 9.1277 6.80062 9.17847 6.92248C9.22924 7.04434 9.30363 7.15494 9.39736 7.2479L13.9974 11.8279C14.0911 11.9209 14.1655 12.0315 14.2163 12.1533C14.267 12.2752 14.2932 12.4059 14.2932 12.5379C14.2932 12.6699 14.267 12.8006 14.2163 12.9225C14.1655 13.0443 14.0911 13.1549 13.9974 13.2479L9.39736 17.8279C9.20906 18.0149 9.10274 18.269 9.1018 18.5344C9.10087 18.7997 9.20538 19.0546 9.39236 19.2429C9.57934 19.4312 9.83346 19.5375 10.0988 19.5385C10.3642 19.5394 10.6191 19.4349 10.8074 19.2479L15.3974 14.6579C15.9592 14.0954 16.2747 13.3329 16.2747 12.5379C16.2747 11.7429 15.9592 10.9804 15.3974 10.4179Z" fill="white"/>
</svg>

