<svg width="24" height="24" viewBox="0 0 24 24" fill="none" xmlns="http://www.w3.org/2000/svg">
<path d="M15.3993 9.88006L10.8093 5.29006C10.622 5.10381 10.3685 4.99927 10.1043 4.99927C9.84013 4.99927 9.58668 5.10381 9.39931 5.29006C9.30559 5.38302 9.23119 5.49362 9.18042 5.61548C9.12965 5.73734 9.10352 5.86805 9.10352 6.00006C9.10352 6.13207 9.12965 6.26278 9.18042 6.38464C9.23119 6.5065 9.30559 6.6171 9.39931 6.71006L13.9993 11.2901C14.093 11.383 14.1674 11.4936 14.2182 11.6155C14.269 11.7373 14.2951 11.868 14.2951 12.0001C14.2951 12.1321 14.269 12.2628 14.2182 12.3846C14.1674 12.5065 14.093 12.6171 13.9993 12.7101L9.39931 17.2901C9.21101 17.477 9.1047 17.7312 9.10376 17.9965C9.10282 18.2619 9.20734 18.5168 9.39431 18.7051C9.58129 18.8934 9.83541 18.9997 10.1008 19.0006C10.3661 19.0016 10.621 18.897 10.8093 18.7101L15.3993 14.1201C15.9611 13.5576 16.2767 12.7951 16.2767 12.0001C16.2767 11.2051 15.9611 10.4426 15.3993 9.88006Z" fill="#C6CAD4"/>
</svg>
