<svg width="11" height="22" viewBox="0 0 11 22" fill="none" xmlns="http://www.w3.org/2000/svg">
<path d="M7.32872 12.0657C7.46932 11.9263 7.58091 11.7604 7.65706 11.5776C7.73322 11.3948 7.77242 11.1987 7.77242 11.0007C7.77242 10.8027 7.73322 10.6066 7.65706 10.4238C7.58091 10.241 7.46932 10.0751 7.32872 9.9357L0.443724 3.0657C0.303131 2.92626 0.191539 2.76035 0.115386 2.57757C0.0392332 2.39478 2.67029e-05 2.19872 2.67029e-05 2.0007C2.67029e-05 1.80268 0.0392332 1.60662 0.115386 1.42384C0.191539 1.24105 0.303131 1.07514 0.443724 0.9357C0.724768 0.656324 1.10495 0.499512 1.50122 0.499512C1.8975 0.499512 2.27768 0.656324 2.55872 0.9357L9.44373 7.8207C10.2864 8.66445 10.7598 9.8082 10.7598 11.0007C10.7598 12.1932 10.2864 13.3369 9.44373 14.1807L2.55872 21.0657C2.27933 21.3428 1.90223 21.499 1.50872 21.5007C1.31131 21.5018 1.11562 21.464 0.932863 21.3894C0.750107 21.3147 0.583884 21.2047 0.443724 21.0657C0.303131 20.9263 0.191539 20.7604 0.115386 20.5776C0.0392332 20.3948 2.67029e-05 20.1987 2.67029e-05 20.0007C2.67029e-05 19.8027 0.0392332 19.6066 0.115386 19.4238C0.191539 19.241 0.303131 19.0751 0.443724 18.9357L7.32872 12.0657Z" fill="#617AF9"/>
</svg>
