<svg width="24" height="24" viewBox="0 0 24 24" fill="none" xmlns="http://www.w3.org/2000/svg">
<path fill-rule="evenodd" clip-rule="evenodd" d="M22 12C22 17.5228 17.5228 22 12 22C6.47715 22 2 17.5228 2 12C2 6.47715 6.47715 2 12 2C17.5228 2 22 6.47715 22 12ZM12 4C16.4183 4 20 7.58172 20 12C20 16.4183 16.4183 20 12 20C7.58172 20 4 16.4183 4 12C4 7.58172 7.58172 4 12 4Z" fill="#E1F5DF"/>
<path fill-rule="evenodd" clip-rule="evenodd" d="M20 12C20 7.58172 16.4183 4 12 4C7.58172 4 4 7.58172 4 12C4 16.4183 7.58172 20 12 20C16.4183 20 20 16.4183 20 12ZM15.8486 9.27637C15.4581 8.88584 14.8251 8.88584 14.4346 9.27637L10.875 12.8359C10.875 12.8359 9.55566 11.4916 9.2517 11.2126C9.22207 11.1854 9.5683 11.4636 9.17553 11.1433C8.78275 10.823 8.20374 10.8465 7.83764 11.2126C7.47153 11.5787 7.44798 12.1578 7.7683 12.5505L7.83764 12.6267L10.168 14.957C10.5585 15.3476 11.1915 15.3476 11.582 14.957L15.8486 10.6904C16.2392 10.2999 16.2392 9.66689 15.8486 9.27637Z" fill="#E1F5DF"/>
<path d="M14.4346 9.27637C14.8251 8.88584 15.4581 8.88584 15.8486 9.27637C16.2392 9.66689 16.2392 10.2999 15.8486 10.6904L11.582 14.957C11.1915 15.3476 10.5585 15.3476 10.168 14.957L7.83764 12.6267L7.7683 12.5505C7.44798 12.1578 7.47153 11.5787 7.83764 11.2126C8.20374 10.8465 8.78275 10.823 9.17553 11.1433C9.5683 11.4636 9.22207 11.1854 9.2517 11.2126C9.55566 11.4916 10.875 12.8359 10.875 12.8359L14.4346 9.27637Z" fill="#0C9200"/>
</svg>
