<svg width="20" height="20" viewBox="0 0 20 20" fill="none" xmlns="http://www.w3.org/2000/svg">
<g clip-path="url(#clip0_1530_581)">
<path d="M6.8036 6.66598C6.32088 6.65842 5.85577 6.48345 5.48776 6.17098C4.72015 5.46699 4.25511 4.493 4.19026 3.45347C3.98776 1.37597 5.1211 0.150141 6.34526 0.0134748C6.64022 -0.019228 6.93875 0.00774258 7.22307 0.0927815C7.50739 0.17782 7.7717 0.319189 8.00026 0.508475C8.34124 0.815836 8.61809 1.18758 8.81488 1.60232C9.01167 2.01707 9.12451 2.46663 9.14693 2.92514C9.3336 4.86181 8.44026 6.66598 6.8036 6.66598ZM6.53026 1.66597C6.04943 1.71931 5.76276 2.40181 5.84943 3.28764C5.87357 3.88275 6.11905 4.4474 6.53776 4.87098C6.61709 4.9489 6.7225 4.99462 6.8336 4.99931C7.1261 4.96681 7.59693 4.21514 7.4861 3.08264C7.2011 1.52764 6.5511 1.66597 6.53026 1.67014V1.66597ZM2.63693 11.666C2.15421 11.6584 1.6891 11.4835 1.3211 11.171C0.553481 10.467 0.0884398 9.493 0.0235959 8.45347C-0.178904 6.37598 0.954429 5.15014 2.1786 5.01348C2.47354 4.98115 2.77197 5.00831 3.05624 5.09333C3.3405 5.17835 3.60484 5.31952 3.8336 5.50848C4.17458 5.81584 4.45142 6.18758 4.64821 6.60232C4.845 7.01707 4.95785 7.46663 4.98026 7.92514C5.16693 9.86181 4.2311 11.666 2.63693 11.666ZM2.3636 6.66598C1.88276 6.71931 1.5961 7.40181 1.68276 8.28764C1.70691 8.88275 1.95238 9.4474 2.3711 9.87097C2.4512 9.94773 2.55615 9.99326 2.66693 9.99931C2.95943 9.96681 3.43026 9.21514 3.31943 8.08264C3.0986 6.55931 2.38443 6.66598 2.3636 6.67014V6.66598ZM13.1969 6.66598C11.7736 6.67598 10.6686 4.86097 10.8578 2.92264C10.8802 2.46413 10.993 2.01457 11.1898 1.59982C11.3866 1.18508 11.6634 0.813336 12.0044 0.505975C12.2328 0.317824 12.4965 0.177311 12.78 0.0927245C13.0636 0.00813807 13.3612 -0.0188084 13.6553 0.0134748C14.8794 0.150141 16.0128 1.37597 15.8103 3.45347C15.7456 4.4933 15.2806 5.46762 14.5128 6.17181C14.1446 6.48398 13.6795 6.65865 13.1969 6.66598ZM12.5169 3.08264C12.4061 4.21181 12.8769 4.96348 13.1694 4.99931C13.2784 4.99502 13.3824 4.9522 13.4628 4.87848C13.8815 4.4549 14.127 3.89025 14.1511 3.29514C14.3261 1.11097 12.6669 1.25348 12.5169 3.08264ZM17.3636 11.666C15.8119 11.666 14.8353 9.86098 15.0244 7.92264C15.0468 7.46413 15.1597 7.01457 15.3565 6.59982C15.5533 6.18508 15.8301 5.81334 16.1711 5.50597C16.3991 5.31714 16.6627 5.17602 16.9463 5.09099C17.2299 5.00596 17.5276 4.97875 17.8219 5.01097C19.0461 5.14764 20.1794 6.37348 19.9769 8.45098C19.9123 9.4908 19.4472 10.4651 18.6794 11.1693C18.3117 11.4824 17.8465 11.658 17.3636 11.666ZM16.6836 8.08264C16.5728 9.21181 17.0436 9.96348 17.3361 9.99931C17.4448 9.99357 17.5482 9.95095 17.6294 9.87847C18.0481 9.4549 18.2936 8.89025 18.3178 8.29514C18.4011 7.40931 18.1178 6.72681 17.6369 6.67347C17.6161 6.66597 16.7628 6.59181 16.6836 8.08264ZM13.3336 19.9993C12.6213 20.0135 11.9178 19.8393 11.2944 19.4943C10.8954 19.2841 10.4512 19.1743 10.0003 19.1743C9.54928 19.1743 9.10509 19.2841 8.70609 19.4943C6.19526 20.9018 3.2686 19.3551 3.3336 15.8326C3.3336 11.9701 7.08943 8.33264 10.0003 8.33264C12.9111 8.33264 16.6669 11.9693 16.6669 15.8326C16.6669 18.286 15.2961 19.9993 13.3336 19.9993ZM10.0003 17.4993C10.7125 17.4853 11.4158 17.6592 12.0394 18.0035C13.9036 19.0185 15.0294 17.6426 15.0003 15.8326C15.0003 13.016 12.0661 9.99931 10.0003 9.99931C7.93443 9.99931 5.00026 13.016 5.00026 15.8326C4.9736 17.6401 6.09026 19.0185 7.9611 18.0035C8.58472 17.6592 9.28805 17.4853 10.0003 17.4993Z" fill="#617AF9"/>
</g>
<defs>
<clipPath id="clip0_1530_581">
<rect width="20" height="20" fill="white"/>
</clipPath>
</defs>
</svg>
