<svg width="14" height="14" viewBox="0 0 14 14" fill="none" xmlns="http://www.w3.org/2000/svg">
<path d="M0.398438 7C0.398438 3.37246 3.25447 0.400391 6.81641 0.400391C8.65409 0.400442 10.3069 1.19482 11.4736 2.45996L12.5674 1.33203C12.7375 1.15675 12.9972 1.1026 13.2236 1.19434C13.4499 1.28619 13.5977 1.50577 13.5977 1.75V4.75C13.5977 5.08137 13.3294 5.34961 12.998 5.34961H10.0889C9.8479 5.34957 9.63006 5.20531 9.53613 4.9834C9.44248 4.76157 9.49056 4.50491 9.6582 4.33203L10.6357 3.32324C9.68012 2.26046 8.32125 1.59966 6.81641 1.59961C3.95175 1.59961 1.59766 4.00012 1.59766 7C1.59766 9.99988 3.95175 12.4004 6.81641 12.4004C9.11587 12.4003 11.0838 10.8561 11.7734 8.69238C11.8743 8.37698 12.2118 8.20314 12.5273 8.30371C12.8427 8.40455 13.0166 8.74207 12.916 9.05762C12.0786 11.6844 9.6733 13.5995 6.81641 13.5996C3.25447 13.5996 0.398438 10.6275 0.398438 7Z" fill="#617AF9"/>
</svg>
