<svg width="36" height="36" viewBox="0 0 36 36" fill="none" xmlns="http://www.w3.org/2000/svg">
<g clip-path="url(#clip0_1951_3458)">
<path d="M18 14.0005C17.2089 14.0005 16.4355 14.2351 15.7777 14.6746C15.1199 15.1141 14.6072 15.7388 14.3045 16.4698C14.0017 17.2007 13.9225 18.0049 14.0769 18.7808C14.2312 19.5568 14.6122 20.2695 15.1716 20.8289C15.731 21.3883 16.4437 21.7693 17.2196 21.9236C17.9956 22.078 18.7998 21.9988 19.5307 21.696C20.2616 21.3933 20.8864 20.8806 21.3259 20.2228C21.7654 19.565 22 18.7916 22 18.0005C22 16.9396 21.5786 15.9222 20.8284 15.1721C20.0783 14.4219 19.0609 14.0005 18 14.0005ZM18 20.0005C17.6044 20.0005 17.2178 19.8832 16.8889 19.6634C16.56 19.4437 16.3036 19.1313 16.1522 18.7659C16.0009 18.4004 15.9613 17.9983 16.0384 17.6103C16.1156 17.2223 16.3061 16.866 16.5858 16.5863C16.8655 16.3066 17.2219 16.1161 17.6098 16.0389C17.9978 15.9617 18.3999 16.0014 18.7654 16.1527C19.1308 16.3041 19.4432 16.5604 19.6629 16.8893C19.8827 17.2182 20 17.6049 20 18.0005C20 18.5309 19.7893 19.0396 19.4142 19.4147C19.0391 19.7898 18.5304 20.0005 18 20.0005Z" fill="#617AF9"/>
<path d="M27.2938 19.9L26.8498 19.644C27.0497 18.5564 27.0497 17.4416 26.8498 16.354L27.2938 16.098C27.6352 15.901 27.9345 15.6387 28.1746 15.3261C28.4147 15.0134 28.5908 14.6565 28.6929 14.2758C28.7951 13.8951 28.8212 13.498 28.7699 13.1072C28.7186 12.7163 28.5908 12.3394 28.3938 11.998C28.1968 11.6566 27.9345 11.3573 27.6219 11.1172C27.3092 10.8771 26.9523 10.701 26.5716 10.5989C26.1909 10.4967 25.7938 10.4706 25.403 10.5219C25.0121 10.5732 24.6352 10.701 24.2938 10.898L23.8488 11.155C23.0083 10.4369 22.0425 9.88025 20.9998 9.513V9C20.9998 8.20435 20.6837 7.44129 20.1211 6.87868C19.5585 6.31607 18.7954 6 17.9998 6C17.2041 6 16.4411 6.31607 15.8785 6.87868C15.3159 7.44129 14.9998 8.20435 14.9998 9V9.513C13.9572 9.88157 12.9916 10.4396 12.1518 11.159L11.7048 10.9C11.0152 10.5022 10.1959 10.3946 9.42698 10.6009C8.65808 10.8072 8.00262 11.3104 7.6048 12C7.20697 12.6896 7.09937 13.5089 7.30566 14.2778C7.51195 15.0467 8.01524 15.7022 8.7048 16.1L9.1488 16.356C8.94891 17.4436 8.94891 18.5584 9.1488 19.646L8.7048 19.902C8.01524 20.2998 7.51195 20.9553 7.30566 21.7242C7.09937 22.4931 7.20697 23.3124 7.6048 24.002C8.00262 24.6916 8.65808 25.1948 9.42698 25.4011C10.1959 25.6074 11.0152 25.4998 11.7048 25.102L12.1498 24.845C12.9906 25.5632 13.9568 26.1199 14.9998 26.487V27C14.9998 27.7956 15.3159 28.5587 15.8785 29.1213C16.4411 29.6839 17.2041 30 17.9998 30C18.7954 30 19.5585 29.6839 20.1211 29.1213C20.6837 28.5587 20.9998 27.7956 20.9998 27V26.487C22.0424 26.1184 23.008 25.5604 23.8478 24.841L24.2948 25.099C24.9844 25.4968 25.8037 25.6044 26.5726 25.3981C27.3415 25.1918 27.997 24.6886 28.3948 23.999C28.7926 23.3094 28.9002 22.4901 28.6939 21.7212C28.4876 20.9523 27.9844 20.2968 27.2948 19.899L27.2938 19.9ZM24.7458 16.124C25.0844 17.3511 25.0844 18.6469 24.7458 19.874C24.6867 20.0876 24.7002 20.3147 24.7841 20.5198C24.8681 20.7249 25.0178 20.8963 25.2098 21.007L26.2938 21.633C26.5236 21.7656 26.6913 21.9841 26.7601 22.2403C26.8288 22.4966 26.7929 22.7697 26.6603 22.9995C26.5277 23.2293 26.3092 23.397 26.053 23.4658C25.7967 23.5345 25.5236 23.4986 25.2938 23.366L24.2078 22.738C24.0157 22.6267 23.792 22.5826 23.572 22.6124C23.3521 22.6423 23.1483 22.7445 22.9928 22.903C22.1027 23.8117 20.9814 24.46 19.7498 24.778C19.5348 24.8333 19.3444 24.9585 19.2084 25.1339C19.0724 25.3094 18.9987 25.525 18.9988 25.747V27C18.9988 27.2652 18.8934 27.5196 18.7059 27.7071C18.5184 27.8946 18.264 28 17.9988 28C17.7336 28 17.4792 27.8946 17.2917 27.7071C17.1042 27.5196 16.9988 27.2652 16.9988 27V25.748C16.9989 25.526 16.9252 25.3104 16.7892 25.1349C16.6532 24.9595 16.4628 24.8343 16.2478 24.779C15.0161 24.4597 13.8951 23.81 13.0058 22.9C12.8503 22.7415 12.6465 22.6393 12.4266 22.6094C12.2066 22.5796 11.9829 22.6237 11.7908 22.735L10.7068 23.362C10.593 23.4287 10.4672 23.4722 10.3365 23.4901C10.2059 23.508 10.073 23.4998 9.94545 23.4661C9.81795 23.4324 9.69838 23.3738 9.59362 23.2937C9.48886 23.2136 9.40098 23.1135 9.33504 22.9993C9.26909 22.8851 9.22639 22.759 9.2094 22.6282C9.1924 22.4974 9.20144 22.3646 9.23599 22.2373C9.27054 22.11 9.32993 21.9909 9.41073 21.8866C9.49153 21.7824 9.59215 21.6952 9.7068 21.63L10.7908 21.004C10.9827 20.8933 11.1325 20.7219 11.2165 20.5168C11.3004 20.3117 11.3139 20.0846 11.2548 19.871C10.9162 18.6439 10.9162 17.3481 11.2548 16.121C11.3129 15.9079 11.2987 15.6815 11.2146 15.4773C11.1305 15.273 10.9811 15.1024 10.7898 14.992L9.7058 14.366C9.47599 14.2334 9.30827 14.0149 9.23954 13.7587C9.17081 13.5024 9.20669 13.2293 9.3393 12.9995C9.47191 12.7697 9.69038 12.602 9.94664 12.5332C10.2029 12.4645 10.476 12.5004 10.7058 12.633L11.7918 13.261C11.9834 13.3725 12.2066 13.4172 12.4263 13.3881C12.6461 13.3589 12.8499 13.2576 13.0058 13.1C13.8959 12.1913 15.0172 11.543 16.2488 11.225C16.4644 11.1696 16.6554 11.0438 16.7914 10.8675C16.9275 10.6913 17.0008 10.4746 16.9998 10.252V9C16.9998 8.73478 17.1052 8.48043 17.2927 8.29289C17.4802 8.10536 17.7346 8 17.9998 8C18.265 8 18.5194 8.10536 18.7069 8.29289C18.8944 8.48043 18.9998 8.73478 18.9998 9V10.252C18.9997 10.474 19.0734 10.6896 19.2094 10.8651C19.3454 11.0405 19.5358 11.1657 19.7508 11.221C20.9828 11.5402 22.1042 12.1899 22.9938 13.1C23.1493 13.2585 23.3531 13.3607 23.573 13.3906C23.793 13.4204 24.0167 13.3763 24.2088 13.265L25.2928 12.638C25.4066 12.5713 25.5324 12.5278 25.6631 12.5099C25.7937 12.492 25.9266 12.5002 26.0541 12.5339C26.1816 12.5676 26.3012 12.6262 26.406 12.7063C26.5107 12.7864 26.5986 12.8865 26.6646 13.0007C26.7305 13.1149 26.7732 13.241 26.7902 13.3718C26.8072 13.5026 26.7982 13.6354 26.7636 13.7627C26.7291 13.89 26.6697 14.0091 26.5889 14.1134C26.5081 14.2176 26.4074 14.3048 26.2928 14.37L25.2088 14.996C25.0178 15.1067 24.8689 15.2775 24.7851 15.4817C24.7014 15.6859 24.6876 15.9121 24.7458 16.125V16.124Z" fill="#617AF9"/>
</g>
<defs>
<clipPath id="clip0_1951_3458">
<rect width="24" height="24" fill="white" transform="translate(6 6)"/>
</clipPath>
</defs>
</svg>
