<svg width="25" height="24" viewBox="0 0 25 24" fill="none" xmlns="http://www.w3.org/2000/svg">
<g clip-path="url(#clip0_1951_3560)">
<path d="M19.156 0.930316L6.96402 13.1223C6.49836 13.5855 6.1292 14.1364 5.8779 14.7432C5.6266 15.3499 5.49817 16.0006 5.50002 16.6573V18.0003C5.50002 18.2655 5.60538 18.5199 5.79291 18.7074C5.98045 18.895 6.2348 19.0003 6.50002 19.0003H7.84302C8.49978 19.0022 9.15039 18.8737 9.75718 18.6224C10.364 18.3711 10.9149 18.002 11.378 17.5363L23.57 5.34432C24.1544 4.75849 24.4826 3.96479 24.4826 3.13732C24.4826 2.30984 24.1544 1.51615 23.57 0.930316C22.9757 0.36221 22.1852 0.045166 21.363 0.045166C20.5408 0.045166 19.7503 0.36221 19.156 0.930316ZM22.156 3.93032L9.96402 16.1223C9.40015 16.6827 8.63803 16.9982 7.84302 17.0003H7.50002V16.6573C7.5021 15.8623 7.81759 15.1002 8.37802 14.5363L20.57 2.34432C20.7836 2.14027 21.0676 2.02641 21.363 2.02641C21.6584 2.02641 21.9424 2.14027 22.156 2.34432C22.366 2.55483 22.4839 2.84001 22.4839 3.13732C22.4839 3.43463 22.366 3.7198 22.156 3.93032Z" fill="white"/>
<path d="M23.5 8.979C23.2348 8.979 22.9804 9.08436 22.7929 9.27189C22.6054 9.45943 22.5 9.71379 22.5 9.979V15H18.5C17.7044 15 16.9413 15.3161 16.3787 15.8787C15.8161 16.4413 15.5 17.2044 15.5 18V22H5.5C4.70435 22 3.94129 21.6839 3.37868 21.1213C2.81607 20.5587 2.5 19.7957 2.5 19V5C2.5 4.20435 2.81607 3.44129 3.37868 2.87868C3.94129 2.31607 4.70435 2 5.5 2H14.542C14.8072 2 15.0616 1.89464 15.2491 1.70711C15.4366 1.51957 15.542 1.26522 15.542 1C15.542 0.734784 15.4366 0.48043 15.2491 0.292893C15.0616 0.105357 14.8072 0 14.542 0L5.5 0C4.17441 0.00158786 2.90356 0.528882 1.96622 1.46622C1.02888 2.40356 0.501588 3.67441 0.5 5L0.5 19C0.501588 20.3256 1.02888 21.5964 1.96622 22.5338C2.90356 23.4711 4.17441 23.9984 5.5 24H16.843C17.4999 24.0019 18.1507 23.8735 18.7576 23.6222C19.3646 23.3709 19.9157 23.0017 20.379 22.536L23.035 19.878C23.5008 19.4149 23.87 18.864 24.1215 18.2572C24.373 17.6504 24.5016 16.9998 24.5 16.343V9.979C24.5 9.71379 24.3946 9.45943 24.2071 9.27189C24.0196 9.08436 23.7652 8.979 23.5 8.979ZM18.965 21.122C18.563 21.523 18.0547 21.8006 17.5 21.922V18C17.5 17.7348 17.6054 17.4804 17.7929 17.2929C17.9804 17.1054 18.2348 17 18.5 17H22.425C22.3013 17.5535 22.024 18.0609 21.625 18.464L18.965 21.122Z" fill="white"/>
</g>
<defs>
<clipPath id="clip0_1951_3560">
<rect width="24" height="24" fill="white" transform="translate(0.5)"/>
</clipPath>
</defs>
</svg>
