<svg width="60" height="42" viewBox="0 0 60 42" fill="none" xmlns="http://www.w3.org/2000/svg">
<path d="M4 15.1765H20M10 25.7647V19.4118M14 25.7647V19.4118M16 30H8C6.89543 30 6 29.0519 6 27.8824V16.2353C6 15.6505 6.44772 15.1765 7 15.1765H17C17.5523 15.1765 18 15.6505 18 16.2353V27.8824C18 29.0519 17.1046 30 16 30ZM10 15.1765H14C14.5523 15.1765 15 14.7024 15 14.1176V13.0588C15 12.4741 14.5523 12 14 12H10C9.44772 12 9 12.4741 9 13.0588V14.1176C9 14.7024 9.44772 15.1765 10 15.1765Z" stroke="#617AF9" stroke-width="2" stroke-linecap="round" stroke-linejoin="round"/>
<path d="M37.375 16.5625C37.375 18.3906 38.6562 20.0938 40.7812 20.7969L40.0156 21.9531C38.4375 21.4297 37.2734 20.3125 36.6719 18.9062C36.0547 20.4453 34.8594 21.625 33.2031 22.2031L32.4375 21.0312C34.6406 20.2812 35.9062 18.4688 35.9062 16.4375V15.0469H37.375V16.5625ZM43.5156 14.3281V17.9375H45.5469V19.1875H43.5156V22.8125H42.0312V14.3281H43.5156ZM43.5156 23.4531V28.3281H42.0312V24.6562H34.2656V23.4531H43.5156ZM58.3594 14.3281V28.3281H56.9375V14.3281H58.3594ZM55.5156 14.625V27.625H54.1094V20.5H51.9375V19.2812H54.1094V14.625H55.5156ZM50.5625 18.2344C50.5625 20.625 51.5312 23.0156 53.5 24.1562L52.6094 25.25C51.2734 24.4531 50.3516 23.0391 49.875 21.3438C49.3672 23.1719 48.4141 24.7266 47.0469 25.5781L46.1406 24.4688C48.125 23.2656 49.1406 20.7188 49.1406 18.2344V17.1094H46.5625V15.9062H52.9688V17.1094H50.5625V18.2344Z" fill="#1E1E21"/>
</svg>
