<svg width="24" height="25" viewBox="0 0 24 25" fill="none" xmlns="http://www.w3.org/2000/svg">
<path d="M0 4.40002C0 2.19089 1.79086 0.400024 4 0.400024H20C22.2091 0.400024 24 2.19089 24 4.40002V20.4C24 22.6092 22.2091 24.4 20 24.4H4C1.79086 24.4 0 22.6092 0 20.4V4.40002Z" fill="#FCE4E4"/>
<g clip-path="url(#clip0_2324_854)">
<path d="M16.5 8.40002H14.95C14.834 7.83573 14.5269 7.3287 14.0806 6.96438C13.6343 6.60007 13.0761 6.40075 12.5 6.40002L11.5 6.40002C10.9239 6.40075 10.3657 6.60007 9.91937 6.96438C9.47309 7.3287 9.16605 7.83573 9.05 8.40002H7.5C7.36739 8.40002 7.24021 8.4527 7.14645 8.54647C7.05268 8.64024 7 8.76742 7 8.90002C7 9.03263 7.05268 9.15981 7.14645 9.25358C7.24021 9.34735 7.36739 9.40002 7.5 9.40002H8V15.9C8.00079 16.5628 8.26444 17.1982 8.73311 17.6669C9.20178 18.1356 9.8372 18.3992 10.5 18.4H13.5C14.1628 18.3992 14.7982 18.1356 15.2669 17.6669C15.7356 17.1982 15.9992 16.5628 16 15.9V9.40002H16.5C16.6326 9.40002 16.7598 9.34735 16.8536 9.25358C16.9473 9.15981 17 9.03263 17 8.90002C17 8.76742 16.9473 8.64024 16.8536 8.54647C16.7598 8.4527 16.6326 8.40002 16.5 8.40002ZM11.5 7.40002H12.5C12.8101 7.4004 13.1126 7.49671 13.3658 7.67575C13.619 7.85478 13.8107 8.10777 13.9145 8.40002H10.0855C10.1893 8.10777 10.381 7.85478 10.6342 7.67575C10.8874 7.49671 11.1899 7.4004 11.5 7.40002ZM15 15.9C15 16.2978 14.842 16.6794 14.5607 16.9607C14.2794 17.242 13.8978 17.4 13.5 17.4H10.5C10.1022 17.4 9.72064 17.242 9.43934 16.9607C9.15804 16.6794 9 16.2978 9 15.9V9.40002H15V15.9Z" fill="#D20000"/>
<path d="M11 15.3997C11.1326 15.3997 11.2598 15.347 11.3536 15.2532C11.4473 15.1594 11.5 15.0323 11.5 14.8997V11.8997C11.5 11.767 11.4473 11.6399 11.3536 11.5461C11.2598 11.4523 11.1326 11.3997 11 11.3997C10.8674 11.3997 10.7402 11.4523 10.6464 11.5461C10.5527 11.6399 10.5 11.767 10.5 11.8997V14.8997C10.5 15.0323 10.5527 15.1594 10.6464 15.2532C10.7402 15.347 10.8674 15.3997 11 15.3997Z" fill="#D20000"/>
<path d="M13 15.3997C13.1326 15.3997 13.2598 15.347 13.3536 15.2532C13.4473 15.1594 13.5 15.0323 13.5 14.8997V11.8997C13.5 11.767 13.4473 11.6399 13.3536 11.5461C13.2598 11.4523 13.1326 11.3997 13 11.3997C12.8674 11.3997 12.7402 11.4523 12.6464 11.5461C12.5527 11.6399 12.5 11.767 12.5 11.8997V14.8997C12.5 15.0323 12.5527 15.1594 12.6464 15.2532C12.7402 15.347 12.8674 15.3997 13 15.3997Z" fill="#D20000"/>
</g>
<defs>
<clipPath id="clip0_2324_854">
<rect width="12" height="12" fill="white" transform="translate(6 6.40002)"/>
</clipPath>
</defs>
</svg>
