<svg width="50" height="46" viewBox="0 0 50 46" fill="none" xmlns="http://www.w3.org/2000/svg">
<path d="M41.5585 46.0002H8.44182C7.00214 46.0085 5.5845 45.6466 4.32508 44.949C3.06566 44.2514 2.00677 43.2417 1.25015 42.0169C0.502881 40.8214 0.0755259 39.4538 0.0091265 38.0456C-0.0572729 36.6373 0.239513 35.2357 0.870984 33.9752L17.4585 4.77518C18.1723 3.38304 19.2575 2.21566 20.5939 1.40232C21.9304 0.588981 23.4658 0.161439 25.0303 0.167047C26.5948 0.172655 28.1271 0.611194 29.4577 1.43409C30.7883 2.25699 31.8651 3.43213 32.5689 4.82935L49.0731 33.8731C49.7273 35.1429 50.0412 36.5606 49.9842 37.9878C49.9273 39.4151 49.5014 40.8032 48.7481 42.0169C47.9916 43.2414 46.9331 44.2509 45.674 44.9485C44.415 45.646 42.9978 46.0082 41.5585 46.0002ZM25.0002 4.33351C24.2031 4.3203 23.4188 4.53454 22.7391 4.95112C22.0595 5.3677 21.5126 5.96936 21.1627 6.6856L21.1085 6.78768L4.55015 35.9314C4.25526 36.5465 4.12266 37.2268 4.16496 37.9077C4.20726 38.5885 4.42306 39.2472 4.79182 39.821C5.17674 40.4412 5.71459 40.9519 6.35376 41.3044C6.99293 41.6568 7.71195 41.839 8.44182 41.8335H41.5668C42.2967 41.839 43.0157 41.6568 43.6549 41.3044C44.294 40.9519 44.8319 40.4412 45.2168 39.821C45.5919 39.2292 45.8065 38.5499 45.8393 37.85C45.8722 37.1501 45.7223 36.4537 45.4043 35.8294L28.8918 6.78768C28.5473 6.04807 27.9971 5.42332 27.307 4.98811C26.6169 4.5529 25.816 4.32565 25.0002 4.33351Z" fill="#D20000"/>
<path fill-rule="evenodd" clip-rule="evenodd" d="M25 29.3326C23.8494 29.3326 22.9167 28.3999 22.9167 27.2493V17.8743C22.9167 16.7237 23.8494 15.791 25 15.791C26.1506 15.791 27.0833 16.7237 27.0833 17.8743V27.2493C27.0833 28.3999 26.1506 29.3326 25 29.3326ZM25 36.6243C23.8494 36.6243 22.9167 35.6916 22.9167 34.541C22.9167 33.3904 23.8494 32.4576 25 32.4576C26.1506 32.4576 27.0833 33.3904 27.0833 34.541C27.0833 35.6916 26.1506 36.6243 25 36.6243Z" fill="#D20000"/>
</svg>
