<svg width="36" height="36" viewBox="0 0 36 36" fill="none" xmlns="http://www.w3.org/2000/svg">
<path d="M0 4C0 1.79086 1.79086 0 4 0H32C34.2091 0 36 1.79086 36 4V32C36 34.2091 34.2091 36 32 36H4C1.79086 36 0 34.2091 0 32V4Z" fill="#3E3F45"/>
<path d="M15.8998 19.0652C15.7592 18.9258 15.6476 18.7599 15.5715 18.5771C15.4953 18.3943 15.4561 18.1982 15.4561 18.0002C15.4561 17.8022 15.4953 17.6061 15.5715 17.4233C15.6476 17.2406 15.7592 17.0747 15.8998 16.9352L22.7848 10.0652C22.9254 9.92577 23.037 9.75987 23.1131 9.57708C23.1893 9.39429 23.2285 9.19823 23.2285 9.00021C23.2285 8.80219 23.1893 8.60614 23.1131 8.42335C23.037 8.24056 22.9254 8.07466 22.7848 7.93521C22.5037 7.65584 22.1236 7.49902 21.7273 7.49902C21.331 7.49902 20.9508 7.65584 20.6698 7.93521L13.7848 14.8202C12.9421 15.664 12.4688 16.8077 12.4688 18.0002C12.4688 19.1927 12.9421 20.3365 13.7848 21.1802L20.6698 28.0652C20.9492 28.3423 21.3263 28.4986 21.7198 28.5002C21.9172 28.5014 22.1129 28.4635 22.2957 28.3889C22.4784 28.3142 22.6446 28.2042 22.7848 28.0652C22.9254 27.9258 23.037 27.7599 23.1131 27.5771C23.1893 27.3943 23.2285 27.1982 23.2285 27.0002C23.2285 26.8022 23.1893 26.6061 23.1131 26.4233C23.037 26.2406 22.9254 26.0747 22.7848 25.9352L15.8998 19.0652Z" fill="white"/>
</svg>
