<svg width="36" height="36" viewBox="0 0 36 36" fill="none" xmlns="http://www.w3.org/2000/svg">
<path d="M0 4C0 1.79086 1.79086 0 4 0H32C34.2091 0 36 1.79086 36 4V32C36 34.2091 34.2091 36 32 36H4C1.79086 36 0 34.2091 0 32V4Z" fill="#ECF0FB"/>
<g clip-path="url(#clip0_1951_10188)">
<path d="M28.853 7.14795C28.1732 6.46915 27.2517 6.08789 26.291 6.08789C25.3303 6.08789 24.4089 6.46915 23.729 7.14795L7.46502 23.412C6.99927 23.8751 6.62998 24.426 6.37851 25.0327C6.12705 25.6395 5.9984 26.2901 6.00001 26.947V29C6.00001 29.2652 6.10537 29.5195 6.29291 29.7071C6.48044 29.8946 6.7348 30 7.00002 30H9.05301C9.70978 30.0018 10.3604 29.8734 10.9672 29.6221C11.574 29.3708 12.1249 29.0016 12.588 28.536L28.853 12.271C29.5315 11.5911 29.9126 10.6699 29.9126 9.70945C29.9126 8.74899 29.5315 7.82776 28.853 7.14795ZM11.174 27.122C10.61 27.6822 9.84798 27.9977 9.05301 28H8.00002V26.947C7.999 26.5529 8.07617 26.1625 8.22705 25.7984C8.37793 25.4343 8.59953 25.1038 8.87901 24.826L21.222 12.483L23.522 14.783L11.174 27.122ZM27.438 10.857L24.932 13.364L22.632 11.069L25.139 8.56195C25.29 8.41126 25.4693 8.29179 25.6664 8.21036C25.8636 8.12893 26.0749 8.08714 26.2883 8.08738C26.5016 8.08761 26.7128 8.12986 26.9098 8.21172C27.1069 8.29357 27.2858 8.41343 27.4365 8.56445C27.5872 8.71547 27.7067 8.8947 27.7881 9.09189C27.8695 9.28908 27.9113 9.50038 27.9111 9.71372C27.9109 9.92706 27.8686 10.1383 27.7868 10.3353C27.7049 10.5323 27.585 10.7113 27.434 10.862L27.438 10.857Z" fill="#3A67EE"/>
</g>
<defs>
<clipPath id="clip0_1951_10188">
<rect width="24" height="24" fill="white" transform="translate(6 6)"/>
</clipPath>
</defs>
</svg>
