<svg width="36" height="36" viewBox="0 0 36 36" fill="none" xmlns="http://www.w3.org/2000/svg">
<path d="M0 4C0 1.79086 1.79086 0 4 0H32C34.2091 0 36 1.79086 36 4V32C36 34.2091 34.2091 36 32 36H4C1.79086 36 0 34.2091 0 32V4Z" fill="#EDEEF2"/>
<g clip-path="url(#clip0_1951_10187)">
<path d="M29.2715 15.4188C27.7205 12.8928 24.1925 8.65479 18.0005 8.65479C11.8085 8.65479 8.28054 12.8928 6.72954 15.4188C6.25007 16.1943 5.99609 17.088 5.99609 17.9998C5.99609 18.9115 6.25007 19.8053 6.72954 20.5808C8.28054 23.1068 11.8085 27.3448 18.0005 27.3448C24.1925 27.3448 27.7205 23.1068 29.2715 20.5808C29.751 19.8053 30.005 18.9115 30.005 17.9998C30.005 17.088 29.751 16.1943 29.2715 15.4188ZM27.5665 19.5338C26.2345 21.6998 23.2195 25.3448 18.0005 25.3448C12.7815 25.3448 9.76654 21.6998 8.43454 19.5338C8.14967 19.0728 7.99879 18.5417 7.99879 17.9998C7.99879 17.4579 8.14967 16.9267 8.43454 16.4658C9.76654 14.2998 12.7815 10.6548 18.0005 10.6548C23.2195 10.6548 26.2345 14.2958 27.5665 16.4658C27.8514 16.9267 28.0023 17.4579 28.0023 17.9998C28.0023 18.5417 27.8514 19.0728 27.5665 19.5338Z" fill="#6B6F77"/>
<path d="M18 13C17.0111 13 16.0444 13.2932 15.2222 13.8427C14.3999 14.3921 13.759 15.173 13.3806 16.0866C13.0022 17.0002 12.9031 18.0055 13.0961 18.9755C13.289 19.9454 13.7652 20.8363 14.4645 21.5355C15.1637 22.2348 16.0546 22.711 17.0246 22.9039C17.9945 23.0969 18.9998 22.9978 19.9134 22.6194C20.827 22.241 21.6079 21.6001 22.1574 20.7779C22.7068 19.9556 23 18.9889 23 18C22.9984 16.6744 22.4711 15.4036 21.5338 14.4662C20.5964 13.5289 19.3256 13.0016 18 13ZM18 21C17.4067 21 16.8266 20.8241 16.3333 20.4944C15.8399 20.1648 15.4554 19.6962 15.2284 19.1481C15.0013 18.5999 14.9419 17.9967 15.0576 17.4147C15.1734 16.8328 15.4591 16.2982 15.8787 15.8787C16.2982 15.4591 16.8328 15.1734 17.4147 15.0576C17.9967 14.9419 18.5999 15.0013 19.1481 15.2284C19.6962 15.4554 20.1648 15.8399 20.4944 16.3333C20.8241 16.8266 21 17.4067 21 18C21 18.7957 20.6839 19.5587 20.1213 20.1213C19.5587 20.6839 18.7957 21 18 21Z" fill="#6B6F77"/>
</g>
<defs>
<clipPath id="clip0_1951_10187">
<rect width="24" height="24" fill="white" transform="translate(6 6)"/>
</clipPath>
</defs>
</svg>
