<svg width="36" height="36" viewBox="0 0 36 36" fill="none" xmlns="http://www.w3.org/2000/svg">
<path d="M1 4C1 2.34315 2.34315 1 4 1H32C33.6569 1 35 2.34315 35 4V32C35 33.6569 33.6569 35 32 35H4C2.34315 35 1 33.6569 1 32V4Z" fill="white"/>
<path d="M1 4C1 2.34315 2.34315 1 4 1H32C33.6569 1 35 2.34315 35 4V32C35 33.6569 33.6569 35 32 35H4C2.34315 35 1 33.6569 1 32V4Z" stroke="#3E3F45" stroke-width="2"/>
<path d="M28.2913 10.0921L14.4723 23.9101C14.3794 24.0034 14.269 24.0774 14.1474 24.1279C14.0258 24.1784 13.8954 24.2044 13.7638 24.2044C13.6321 24.2044 13.5018 24.1784 13.3802 24.1279C13.2586 24.0774 13.1482 24.0034 13.0553 23.9101L7.71129 18.5611C7.61838 18.4679 7.50797 18.3939 7.38638 18.3433C7.2648 18.2928 7.13444 18.2669 7.00279 18.2669C6.87114 18.2669 6.74078 18.2928 6.61919 18.3433C6.49761 18.3939 6.3872 18.4679 6.29429 18.5611C6.20101 18.654 6.127 18.7645 6.0765 18.886C6.026 19.0076 6 19.138 6 19.2696C6 19.4013 6.026 19.5317 6.0765 19.6532C6.127 19.7748 6.20101 19.8852 6.29429 19.9781L11.6403 25.3231C12.2042 25.886 12.9685 26.2022 13.7653 26.2022C14.5621 26.2022 15.3263 25.886 15.8903 25.3231L29.7083 11.5081C29.8014 11.4152 29.8753 11.3049 29.9257 11.1834C29.9761 11.0619 30.0021 10.9317 30.0021 10.8001C30.0021 10.6686 29.9761 10.5384 29.9257 10.4169C29.8753 10.2954 29.8014 10.185 29.7083 10.0921C29.6154 9.99886 29.505 9.92485 29.3834 9.87435C29.2618 9.82385 29.1314 9.79785 28.9998 9.79785C28.8681 9.79785 28.7378 9.82385 28.6162 9.87435C28.4946 9.92485 28.3842 9.99886 28.2913 10.0921Z" fill="#3E3F45" stroke="#3E3F45"/>
</svg>
