<svg width="24" height="24" viewBox="0 0 24 24" fill="none" xmlns="http://www.w3.org/2000/svg">
<path d="M18.7108 14.7042C18.6178 14.7979 18.5072 14.8723 18.3854 14.9231C18.2635 14.9739 18.1328 15 18.0008 15C17.8688 15 17.7381 14.9739 17.6162 14.9231C17.4944 14.8723 17.3838 14.7979 17.2908 14.7042L12.7108 10.1242C12.6178 10.0305 12.5072 9.95609 12.3854 9.90532C12.2635 9.85455 12.1328 9.82841 12.0008 9.82841C11.8688 9.82841 11.7381 9.85455 11.6162 9.90532C11.4944 9.95609 11.3838 10.0305 11.2908 10.1242L6.71079 14.7042C6.61783 14.7979 6.50723 14.8723 6.38537 14.9231C6.26351 14.9739 6.1328 15 6.00079 15C5.86878 15 5.73808 14.9739 5.61622 14.9231C5.49436 14.8723 5.38376 14.7979 5.29079 14.7042C5.10454 14.5168 5 14.2634 5 13.9992C5 13.735 5.10454 13.4816 5.29079 13.2942L9.88079 8.70421C10.4433 8.14241 11.2058 7.82686 12.0008 7.82686C12.7958 7.82686 13.5583 8.14241 14.1208 8.70421L18.7108 13.2942C18.897 13.4816 19.0016 13.735 19.0016 13.9992C19.0016 14.2634 18.897 14.5168 18.7108 14.7042Z" fill="#C6CAD4"/>
</svg>
