<svg width="36" height="36" viewBox="0 0 36 36" fill="none" xmlns="http://www.w3.org/2000/svg">
<path d="M0 4C0 1.79086 1.79086 0 4 0H32C34.2091 0 36 1.79086 36 4V32C36 34.2091 34.2091 36 32 36H4C1.79086 36 0 34.2091 0 32V4Z" fill="#E7F6E5"/>
<g clip-path="url(#clip0_1951_10186)">
<path d="M29.7078 28.2938L23.7388 22.3248C25.3654 20.3354 26.1651 17.7969 25.9726 15.2343C25.7801 12.6718 24.61 10.2813 22.7043 8.55728C20.7987 6.83327 18.3034 5.90765 15.7344 5.97188C13.1655 6.03611 10.7195 7.08528 8.90237 8.90237C7.08528 10.7195 6.03611 13.1655 5.97188 15.7344C5.90765 18.3034 6.83327 20.7987 8.55728 22.7043C10.2813 24.61 12.6718 25.7801 15.2343 25.9726C17.7969 26.1651 20.3354 25.3654 22.3248 23.7388L28.2938 29.7078C28.4824 29.8899 28.735 29.9907 28.9972 29.9884C29.2594 29.9862 29.5102 29.881 29.6956 29.6956C29.881 29.5102 29.9862 29.2594 29.9884 28.9972C29.9907 28.735 29.8899 28.4824 29.7078 28.2938ZM16.0008 24.0008C14.4185 24.0008 12.8718 23.5316 11.5562 22.6525C10.2406 21.7735 9.21522 20.524 8.60972 19.0622C8.00422 17.6004 7.84579 15.9919 8.15448 14.44C8.46316 12.8882 9.22508 11.4627 10.3439 10.3439C11.4627 9.22508 12.8882 8.46316 14.44 8.15448C15.9919 7.84579 17.6004 8.00422 19.0622 8.60972C20.524 9.21522 21.7735 10.2406 22.6525 11.5562C23.5316 12.8718 24.0008 14.4185 24.0008 16.0008C23.9984 18.1218 23.1548 20.1552 21.655 21.655C20.1552 23.1548 18.1218 23.9984 16.0008 24.0008Z" fill="#0C9200"/>
<path d="M19 15H17V13C17 12.7348 16.8946 12.4804 16.7071 12.2929C16.5196 12.1054 16.2652 12 16 12C15.7348 12 15.4804 12.1054 15.2929 12.2929C15.1054 12.4804 15 12.7348 15 13V15H13C12.7348 15 12.4804 15.1054 12.2929 15.2929C12.1054 15.4804 12 15.7348 12 16C12 16.2652 12.1054 16.5196 12.2929 16.7071C12.4804 16.8946 12.7348 17 13 17H15V19C15 19.2652 15.1054 19.5196 15.2929 19.7071C15.4804 19.8946 15.7348 20 16 20C16.2652 20 16.5196 19.8946 16.7071 19.7071C16.8946 19.5196 17 19.2652 17 19V17H19C19.2652 17 19.5196 16.8946 19.7071 16.7071C19.8946 16.5196 20 16.2652 20 16C20 15.7348 19.8946 15.4804 19.7071 15.2929C19.5196 15.1054 19.2652 15 19 15Z" fill="#0C9200"/>
</g>
<defs>
<clipPath id="clip0_1951_10186">
<rect width="24" height="24" fill="white" transform="translate(6 6)"/>
</clipPath>
</defs>
</svg>
