<svg width="1024" height="1024" viewBox="0 0 1024 1024" fill="none" xmlns="http://www.w3.org/2000/svg">
<g clip-path="url(#clip0_3383_186973)">
<path d="M330.107 264.341H561.971C658.982 264.341 737.625 346.469 737.625 443.48C737.625 540.491 658.982 619.134 561.971 619.134C542.569 619.134 526.84 634.863 526.84 654.265V745.606C526.84 753.366 520.549 759.658 512.788 759.658H469.26C462.233 759.658 455.207 752.632 455.207 745.606V576.977C455.207 561.456 467.79 548.873 483.312 548.873H523.523C536.612 548.873 549.522 545.825 561.229 539.971L603.386 518.893C665.53 487.821 665.529 399.139 603.386 368.067L561.229 346.989C549.522 341.135 536.498 334.031 523.408 334.031H329.993C322.967 334.031 316.055 327.119 316.055 320.093L316.055 278.393C316.055 270.632 322.346 264.341 330.107 264.341Z" fill="white"/>
<path d="M316.055 745.091V616.621V602.568V417.774C316.055 410.013 322.346 403.722 330.107 403.722H523.523C525.704 403.722 527.856 404.23 529.807 405.205L571.964 425.953C582.321 431.132 582.321 445.912 571.964 451.091L529.807 471.929C527.856 472.904 525.704 473.412 523.523 473.412H400.369C392.608 473.412 386.316 479.704 386.316 487.465V745.091C386.316 752.852 380.025 759.144 372.264 759.144H330.107C322.346 759.144 316.055 752.852 316.055 745.091Z" fill="#FFBF00"/>
</g>
<defs>
<clipPath id="clip0_3383_186973">
<rect width="1024" height="1024" fill="white"/>
</clipPath>
</defs>
</svg>
